<svg width="17" height="18" viewBox="0 0 17 18" fill="none" xmlns="http://www.w3.org/2000/svg">
<g id="editIcon" clip-path="url(#clip0_48_1085)">
<g id="Group">
<path id="Vector" d="M12.0412 3.58292L13.91 5.46324M13.2429 1.92642L8.18966 7.01316C7.92856 7.27562 7.75049 7.61002 7.67789 7.9742L7.21112 10.3262L9.54761 9.85541C9.90937 9.78258 10.2411 9.60405 10.5023 9.34114L15.5556 4.2544C15.7074 4.10154 15.8279 3.92007 15.9101 3.72035C15.9923 3.52064 16.0346 3.30658 16.0346 3.09041C16.0346 2.87423 15.9923 2.66018 15.9101 2.46046C15.8279 2.26074 15.7074 2.07927 15.5556 1.92642C15.4037 1.77356 15.2235 1.65231 15.0251 1.56958C14.8267 1.48685 14.614 1.44427 14.3993 1.44427C14.1845 1.44427 13.9719 1.48685 13.7735 1.56958C13.575 1.65231 13.3948 1.77356 13.2429 1.92642V1.92642Z" stroke="#8A8A8A" stroke-linecap="round" stroke-linejoin="round"/>
<path id="Vector_2" d="M14.2699 12.1027V14.7674C14.2699 15.2385 14.084 15.6903 13.7531 16.0235C13.4221 16.3566 12.9732 16.5438 12.5052 16.5438H2.79926C2.33123 16.5438 1.88237 16.3566 1.55142 16.0235C1.22047 15.6903 1.03455 15.2385 1.03455 14.7674V4.99711C1.03455 4.52598 1.22047 4.07414 1.55142 3.741C1.88237 3.40786 2.33123 3.2207 2.79926 3.2207H5.44634" stroke="#8A8A8A" stroke-linecap="round" stroke-linejoin="round"/>
</g>
</g>
<defs>
<clipPath id="clip0_48_1085">
<rect width="17" height="18" fill="white"/>
</clipPath>
</defs>
</svg>
